<!-- icon666.com - MILLIONS OF FREE VECTOR ICONS --><svg viewBox="0 0 48 48" xmlns="http://www.w3.org/2000/svg"><g id="Line"><path d="m25.96 31.126 20.04-16.181v-2.945c0-1.654-1.346-3-3-3h-38c-1.654 0-3 1.346-3 3v2.071l20.116 16.997c1.105.947 2.72.969 3.844.058z"></path><path d="m46 17.515-11.623 9.385 11.356 10.323c.168-.374.267-.786.267-1.223z"></path><path d="m13.846 26.698-11.846-10.009v19.311c0 .437.099.849.267 1.224z"></path><path d="m44.346 38.666-11.543-10.494-5.584 4.509c-1.874 1.518-4.566 1.481-6.399-.09l-5.434-4.591-11.732 10.666c.406.207.859.334 1.346.334h38c.487 0 .94-.127 1.346-.334z"></path></g></svg>